<?xml version="1.0" encoding="utf-8"?>
<!-- Generator: Adobe Illustrator 24.2.1, SVG Export Plug-In . SVG Version: 6.00 Build 0)  -->
<svg version="1.1" id="Layer_1" xmlns="http://www.w3.org/2000/svg" xmlns:xlink="http://www.w3.org/1999/xlink" x="0px" y="0px"
	 viewBox="0 0 8 8" style="enable-background:new 0 0 8 8;" xml:space="preserve">
<path d="M4,2c1.1,0,2-0.9,2-2H2C2,1.1,2.9,2,4,2z"/>
<path d="M2,4c0-1.1-0.9-2-2-2v4C1.1,6,2,5.1,2,4z"/>
<path d="M4,6C2.9,6,2,6.9,2,8h4C6,6.9,5.1,6,4,6z"/>
<path d="M6,4c0,1.1,0.9,2,2,2V2C6.9,2,6,2.9,6,4z"/>
</svg>
