<?xml version="1.0" encoding="utf-8"?>
<!-- Generator: Adobe Illustrator 24.1.3, SVG Export Plug-In . SVG Version: 6.00 Build 0)  -->
<svg version="1.1" id="Layer_1" xmlns="http://www.w3.org/2000/svg" xmlns:xlink="http://www.w3.org/1999/xlink" x="0px" y="0px"
	 viewBox="0 0 1600 200" style="enable-background:new 0 0 1600 200;" xml:space="preserve">
<style type="text/css">
	.st0{font-family:'Courier';}
	.st1{font-size:19.5889px;}
</style>
<g>
	<circle cx="87.6" cy="100" r="27.4"/>
	<text transform="matrix(1 0 0 1 132.5023 105.7499)" class="st0 st1">Glazing</text>
</g>
<g>
	<circle cx="271.2" cy="100" r="27.4"/>
	<text transform="matrix(1 0 0 1 316.1171 105.7499)" class="st0 st1">Spacer</text>
</g>
<g>
	<path d="M470.4,100c0,15.1-12.3,27.4-27.4,27.4c-15.1,0-27.4-12.3-27.4-27.4H470.4z"/>
	<path d="M415.6,100c0-15.1,12.3-27.4,27.4-27.4c15.1,0,27.4,12.3,27.4,27.4H415.6z"/>
	<text transform="matrix(1 0 0 1 487.9762 105.7499)" class="st0 st1">Top/Bottom Mat</text>
</g>
<g>
	<circle cx="892.6" cy="100" r="27.4"/>
	<text transform="matrix(1 0 0 1 937.4925 105.7499)" class="st0 st1">Backing</text>
</g>
<g>
	<circle cx="1400.8" cy="100" r="27.4"/>
	<text transform="matrix(1 0 0 1 1445.7847 105.7499)" class="st0 st1">Strainer</text>
</g>
<g>
	<circle cx="1076.2" cy="100" r="27.4"/>
	<text transform="matrix(1 0 0 1 1121.1077 105.7499)" class="st0 st1">Additional Material</text>
</g>
<g>
	<circle cx="708.9" cy="100" r="27.4"/>
	<text transform="matrix(1 0 0 1 753.877 105.7499)" class="st0 st1">Artwork</text>
</g>
</svg>
