<?xml version="1.0" encoding="utf-8"?>
<!-- Generator: Adobe Illustrator 24.1.3, SVG Export Plug-In . SVG Version: 6.00 Build 0)  -->
<svg version="1.1" id="Layer_1" xmlns="http://www.w3.org/2000/svg" xmlns:xlink="http://www.w3.org/1999/xlink" x="0px" y="0px"
	 viewBox="0 0 150 150" style="enable-background:new 0 0 150 150;" xml:space="preserve">
<style type="text/css">
	.st0{fill:#BDAF8A;}
	.st1{fill:#77D1F4;}
	.st2{fill:#F7941D;stroke:#FFFFFF;stroke-width:0.5;stroke-miterlimit:10;}
	.st3{stroke:#000000;stroke-miterlimit:10;}
	.st4{fill:none;stroke:#000000;stroke-miterlimit:10;}
</style>
<rect x="40.7" y="40.5" class="st0" width="12.8" height="20.8"/>
<rect x="40.7" y="73.3" class="st1" width="100" height="8"/>
<polygon class="st0" points="48.1,81.3 40.7,81.3 40.7,131.3 90.7,131.3 "/>
<rect x="40.7" y="69.3" class="st2" width="100" height="4"/>
<polygon class="st2" points="103.5,61.3 40.7,61.3 40.7,69.3 109.2,69.3 "/>
<polygon class="st3" points="60.9,22.7 60.9,32.5 40.7,32.5 40.7,131.3 26.4,131.3 26.4,22.7 "/>
<g>
	<line class="st4" x1="17.5" y1="36.5" x2="9.3" y2="36.5"/>
	<line class="st4" x1="17.5" y1="131.3" x2="9.3" y2="131.3"/>
	<line class="st4" x1="13.4" y1="131.3" x2="13.4" y2="100.9"/>
	<line class="st4" x1="13.4" y1="67" x2="13.4" y2="36.5"/>
</g>
<rect x="40.7" y="32.5" class="st4" width="100" height="8"/>
</svg>
